PathFileType	4	(X/Y/Z)	24_2_9_p0_0-260_filt_butterworth.trc
DataRate	CameraRate	NumFrames	NumMarkers	Units	OrigDataRate	OrigDataStartFrame	OrigNumFrames
59.0	59.0	6	27	m	59.0	65	260
Frame#	Time	RHip			RKnee			RAnkle			RBigToe			RSmallToe			RHeel			LHip			LKnee			LAnkle			LBigToe			LSmallToe			LHeel			Neck			Head			Nose			RShoulder			RElbow			RWrist			RThumb			RIndex			RPinky			LShoulder			LElbow			LWrist			LThumb			LIndex			LPinky			
		X1	Y1	Z1	X2	Y2	Z2	X3	Y3	Z3	X4	Y4	Z4	X5	Y5	Z5	X6	Y6	Z6	X7	Y7	Z7	X8	Y8	Z8	X9	Y9	Z9	X10	Y10	Z10	X11	Y11	Z11	X12	Y12	Z12	X13	Y13	Z13	X14	Y14	Z14	X15	Y15	Z15	X16	Y16	Z16	X17	Y17	Z17	X18	Y18	Z18	X19	Y19	Z19	X20	Y20	Z20	X21	Y21	Z21	X22	Y22	Z22	X23	Y23	Z23	X24	Y24	Z24	X25	Y25	Z25	X26	Y26	Z26	X27	Y27	Z27	
65	1.1016949152542372	0.4245740600109241	0.7882074253328156	0.6541319706471722	0.41697084964123343	0.33082168427078723	0.6583471601057729	0.41325615018379075	-0.08057429732217543	0.6906921379054843	0.4206895241769033	-0.025139152497054465	0.478420827846196	0.4687678367735132	-0.04087768512882915	0.5244947225146217	0.38088383390821245	-0.16972658608967198	0.7769874109270039	0.23355042493705164	0.7914288938601263	0.6280781715808275	0.20575926810185433	0.31643164593896345	0.6583998813520268	0.20368579214044727	-0.07941386899436763	0.6766154266267892	0.24382400756782538	-0.028655320378351723	0.4860442044260817	0.1956219496251127	-0.03954765977108528	0.5107948853474787	0.21917828694407746	-0.1485281157756889	0.7221938229352082	0.3406553621293945	1.2891048264386635	0.7018125875626859	0.3259263836207493	1.5364428569664157	0.6739507493862598	0.33620438282741594	1.4320434251599081	0.5936924575500316	0.47603400333677603	1.197331671584869	0.7094928503377145	0.516601564767048	0.9247878498611604	0.7202353511404425	0.5227308419015015	0.7300303060781286	0.6059104747919148	0.46253882942911995	0.6287534792472693	0.5361013841950037	0.47672097789351053	0.6237194487778542	0.5138047495519275	0.4964973311575451	0.581849666918475	0.6208415656380204	0.18643853235444646	1.2015757151411914	0.6634943572293104	0.15733990683137086	0.9620922114326179	0.6270484118757812	0.16787801270700636	0.7368776290784843	0.5504244520041295	0.23234817197494426	0.6565152156910898	0.4966255930976456	0.224379027225038	0.6242207418582663	0.48870080545790695	0.17372063553301606	0.603969717463664	0.5313601844992815	
66	1.11864406779661	0.4242188165379474	0.7878670512950681	0.6561846552064983	0.41731459418970795	0.33066703030572964	0.659177788106434	0.41331615492025126	-0.08089646473485654	0.690625168092724	0.420673826175215	-0.025145093395669768	0.47838120375859133	0.46869281577221533	-0.041938277642206506	0.5251136135030898	0.38121960822489537	-0.16836430327710056	0.7761569950640659	0.2333302358297808	0.7910333562653753	0.6298077986663957	0.2054678913048908	0.3157695579339346	0.6590884186034629	0.20405254618257826	-0.07882335851908559	0.6758629473656668	0.2442199511999789	-0.026819992385932703	0.4841863943288204	0.19548473055597193	-0.03970535032922187	0.5110317085963677	0.21906675105047946	-0.14802081973984016	0.7209813613929047	0.34080851684479185	1.2899144505920543	0.7016946647941629	0.3266332739947625	1.5360618869220877	0.6760071049299561	0.336332561541655	1.4321621722588578	0.5934165430536762	0.47596575689582793	1.197944895426557	0.7094547099710927	0.5169625590511202	0.9239884224437744	0.7229276701792264	0.5242551434354628	0.7310266770000013	0.6043833300775618	0.4637261542492423	0.6282792666219696	0.5364985250008173	0.4772613641362323	0.6236888477580845	0.5142333752267112	0.49697633912328854	0.5822738006193071	0.6179792467755137	0.18644219049439759	1.2014231230026864	0.6633969376588227	0.1563616754743174	0.9629484983008024	0.6266926178774538	0.17031061254389743	0.7378047593760189	0.5478268801443343	0.23303312338176374	0.6561302238305453	0.49826084022938	0.22743185403092198	0.6246006589481516	0.48957383946514743	0.17864111637559746	0.607225447802711	0.5273218499401676	
67	1.1355932203389831	0.4240132012703845	0.7876549689799153	0.6583471285669216	0.41759923238699104	0.33039558875607494	0.6599881154332756	0.4133890615587506	-0.08123628797289845	0.6905403516138631	0.42056928995420356	-0.025150116091024285	0.4783358275411058	0.468441170817933	-0.04207647887665511	0.5245904434862004	0.38168204318609184	-0.16700347056714637	0.7751583993950872	0.23320634003394494	0.790726255116851	0.6317856016970012	0.205141108936718	0.31493058169510846	0.6601673050153237	0.2044879629400429	-0.07810654323509941	0.6749616037204743	0.2448669801529751	-0.023313543455168464	0.4802576608235537	0.19542823641108964	-0.03943112157014442	0.5107655235388744	0.21888199814092144	-0.14720789607891216	0.7195328051061164	0.34130434737010157	1.2907645067445834	0.7007826220331985	0.32768928583346224	1.5355375310808852	0.6788334664700255	0.336248235911076	1.4320602377583547	0.5935819325173317	0.475929436694566	1.1983850010269135	0.7093962310730366	0.5175541288482717	0.9232630510142011	0.7251928299891437	0.5258715829404645	0.732110458083496	0.6022599119989749	0.464462323864056	0.628295893518394	0.5353628135523876	0.47788039589052933	0.6244343671049295	0.5140681061714067	0.4973321151931799	0.5835022335424818	0.6136290164107872	0.18644261159728093	1.2012937311834957	0.6632882969358771	0.15532870494960976	0.9637854363012199	0.6262521008192236	0.17338349435640243	0.7392539725889772	0.5445287066538708	0.23399689560174664	0.6556450671264141	0.5004307886653945	0.23028606997007495	0.6248078378108285	0.4902269977204684	0.18363311345344824	0.6097690396872766	0.5240961836551785	
68	1.152542372881356	0.42398470254063664	0.7876797528468197	0.660209106605454	0.41783866422425364	0.3299738309714835	0.6609138549976954	0.4134717405429499	-0.08158129464970111	0.6904429396393535	0.42049309156045467	-0.025124953966797328	0.47828239793315364	0.468257292829969	-0.04100225251585729	0.5228563887373208	0.3822003166473278	-0.1658563042383223	0.7739924127288728	0.2331983803806958	0.790549182083328	0.6338472955236989	0.2047582643327861	0.3139583886907277	0.6615123018055579	0.20497612397573148	-0.07724985610970825	0.6739262266922498	0.24571267048781587	-0.01899916198188517	0.47519585523192215	0.1955046614871836	-0.0384467979213224	0.5096425533615898	0.21862787999229313	-0.14619472145541088	0.7179973714465001	0.342108346292148	1.2914635084087691	0.6990643190945571	0.3288812333280905	1.5350159613071024	0.6816952684418824	0.33613043664760156	1.4319365558769148	0.5938235536275381	0.47605286564789506	1.1985628710394653	0.7093906978548787	0.5184405813904986	0.922857261186167	0.7263900313076038	0.5273050853075878	0.733285059722943	0.59998164015419	0.46473527494045297	0.6290047991403444	0.5328231188908928	0.4785039633047148	0.6258800660177581	0.5131395578417302	0.4976261275809337	0.5851157148635099	0.6088945325903067	0.18644099410773218	1.2012548346098209	0.6631800907243174	0.15422964724468657	0.9644834741928059	0.6257453545324507	0.1770363055842007	0.7413563493399102	0.5407405130491225	0.23508482524089314	0.65566684842375	0.5029161811092372	0.23261518459718064	0.6248249594902421	0.4906652013090991	0.18843108267655675	0.6112353037833897	0.5220921778401635	
69	1.1694915254237288	0.42413614949643164	0.7879678396295816	0.6615734227954426	0.41813787855092766	0.3294097933359124	0.6621301603367845	0.4135508318548724	-0.08188564511106793	0.6903456129318084	0.42046698322896003	-0.025079159455085598	0.47824208313851796	0.46843297032218306	-0.038870646649667634	0.5201857727792274	0.3826710902777075	-0.16503523817971044	0.7726696955422953	0.2332897953327095	0.7905294170821852	0.6357522650791143	0.20430947738356917	0.31303895653708735	0.6629472922921629	0.20550375352206773	-0.07626062676347131	0.6727835032655284	0.2466734688761315	-0.014809623190197449	0.4701271472280921	0.19575445175937622	-0.036772012476530114	0.5076649367024167	0.21838013496314745	-0.14514387561121228	0.7166049935706896	0.34307681013887953	1.2918584263328445	0.6967588204431772	0.3300099391078852	1.5345894921661676	0.6840257569165851	0.3360724140889114	1.4319052296827353	0.5939296628374702	0.47639743101504267	1.1984100080951234	0.7095499099197362	0.5195479800490447	0.9228757766725357	0.7262214627909488	0.528308097989885	0.7345011991214598	0.5979580311326408	0.4646775786836356	0.6304282089818422	0.5292717429074982	0.47904269630632257	0.6278990918490741	0.5115938992043711	0.49783713798422435	0.5864845283055946	0.6050290024816818	0.18644838738104277	1.2012768513576293	0.6630629971703207	0.1530680909954163	0.9649224157209144	0.6251772084884266	0.1811588174133674	0.7442384732280046	0.5365449651119867	0.2361267407948049	0.6565797296607987	0.5054177572630626	0.23421266792861267	0.6247376594623213	0.49097579602911623	0.1929361635540034	0.6115924706442444	0.5215385478092992	
70	1.1864406779661016	0.4244352659431667	0.7884110519810573	0.6625208088386635	0.41855649630396446	0.32871624620665874	0.6637003895397563	0.41359447456323245	-0.08210122357585203	0.6902600024763833	0.42047732258090253	-0.02502913650124851	0.47822831056479975	0.4690497175361651	-0.03603333078262515	0.5168929861242387	0.38306810271342606	-0.1644703940941707	0.7712470148446253	0.23344343885610871	0.790705747372432	0.6372754933324891	0.20380433586642804	0.31232589716536363	0.6643188239016046	0.20606609362603112	-0.07523680006030055	0.6715895282933667	0.2476282037905497	-0.011369007546138607	0.4659287431480592	0.19616324575967264	-0.034652006272123975	0.5051076143715445	0.2182239836146017	-0.1441846613575097	0.7155130756946575	0.3440607378876529	1.291953249788503	0.6941976865236117	0.33093011523713767	1.53429998511977	0.6855325925094752	0.3360682047941377	1.4319606466358807	0.593897236900762	0.47693812938396807	1.1979395476197123	0.7099015917893764	0.52071745549598	0.9233162084716242	0.7247120523877915	0.5287608266116228	0.7355956058102544	0.5965671570454023	0.46440723368998116	0.6324049387967615	0.5252227319873777	0.47959175355742706	0.630397077540821	0.5095341449999752	0.4978808179115535	0.5872284708599939	0.6026895665422505	0.18647635514382777	1.2013085945424213	0.6629734169592867	0.15189112134852606	0.9650564298197923	0.6245489707007112	0.1855829264983231	0.747809777430458	0.5321077294572206	0.23696416606779722	0.658414336768635	0.5075957159788407	0.23505679739822144	0.6246944246247995	0.49125605418183815	0.19704972099692886	0.6110077271583094	0.5224971105621607	
